# xmcd
#
# Track frame offsets:
#	150
#	18320
#	35047
#	51445
#	65222
#	81452
#	99004
#	116060
#	134830
#	150842
#	167214
#	186858
#
# Disc length: 2699 seconds
# Revision: 6
# Processed by: cddbd v1.5.2PL0 Copyright (c) Steve Scherf et al.
# Submitted via: dBpowerAMP V12.0
#
DISCID=a80a890c
DTITLE=Blake Shelton - Bringing Back the Sunshine
DYEAR=2014
DGENRE=Country
TTITLE0=Bringing Back the Sunshine
TTITLE1=Neon Light
TTITLE2=Lonely Tonight
TTITLE3=Gonna
TTITLE4=A Girl
TTITLE5=Sangria
TTITLE6=Buzzin'
TTITLE7=Just South of Heaven
TTITLE8=I Need My Girl
TTITLE9=Good Country Song
TTITLE10=Anyone Else
TTITLE11=Just Gettin' Started
EXTD=
EXTT0=
EXTT1=
EXTT2=
EXTT3=
EXTT4=
EXTT5=
EXTT6=
EXTT7=
EXTT8=
EXTT9=
EXTT10=
EXTT11=
PLAYORDER=
